<?xml version="1.0" encoding="UTF-8"?>
<!DOCTYPE svg PUBLIC "-//W3C//DTD SVG 1.1//EN" "http://www.w3.org/Graphics/SVG/1.1/DTD/svg11.dtd">
<!-- Creator: CorelDRAW 2018 (64-Bit) -->
<svg xmlns="http://www.w3.org/2000/svg" xml:space="preserve" width="81.4814mm" height="92.0634mm" version="1.1" style="shape-rendering:geometricPrecision; text-rendering:geometricPrecision; image-rendering:optimizeQuality; fill-rule:evenodd; clip-rule:evenodd"
viewBox="0 0 9363.96 10580.06"
 xmlns:xlink="http://www.w3.org/1999/xlink">
 <defs>
  <style type="text/css">
   <![CDATA[
    .fil0 {fill:black}
   ]]>
  </style>
 </defs>
 <g id="Слой_x0020_1">
  <metadata id="CorelCorpID_0Corel-Layer"/>
  <g id="_1761053099392">
   <path class="fil0" d="M1884.95 9637.59l0 -7448.61c0,-153.67 109.68,-304.02 273.63,-304.02l6293.31 0c163.94,0 273.63,150.35 273.63,304.02l0 7448.61c0,153.66 -109.69,304.02 -273.63,304.02l-6293.31 0c-163.95,0 -273.63,-150.36 -273.63,-304.02zm-638.45 -7418.2l0 7387.8c0,550.08 430.11,972.88 851.27,972.88l6414.92 0c200.07,0 422.26,-123.64 560.18,-260.68 175.4,-174.27 291.08,-388.3 291.08,-712.2l0 -7387.8c0,-387.09 -199.32,-710.71 -495.14,-872.98 -110.72,-60.72 -225.92,-99.9 -386.53,-99.9l-6354.12 0c-489.16,0 -881.67,436.01 -881.67,972.88z"/>
   <path class="fil0" d="M-0 972.88l0 8056.66c0,240.92 188.4,304.02 364.83,304.02 335.05,0 273.63,-424.09 273.62,-760.07l-0.03 -7357.43c-1.84,-724.71 38.96,-577.62 1520.16,-577.62l5229.24 0.01c251.67,0.06 729.66,59.47 729.66,-334.43 0,-127.65 -134.79,-304.02 -243.22,-304.02l-7022.98 0c-437.75,0 -851.27,460.72 -851.27,972.88z"/>
  </g>
 </g>
</svg>
